<mxfile host="app.diagrams.net" modified="2023-08-10T16:21:07.301Z" agent="Mozilla/5.0 (Windows NT 10.0; Win64; x64) AppleWebKit/537.36 (KHTML, like Gecko) Chrome/115.0.0.0 Safari/537.36" etag="1Cs4pvyjFLTcSGv-V56O" version="21.6.8" type="github">
  <diagram id="C5RBs43oDa-KdzZeNtuy" name="Page-1">
    <mxGraphModel dx="880" dy="1615" grid="1" gridSize="10" guides="1" tooltips="1" connect="1" arrows="1" fold="1" page="1" pageScale="1" pageWidth="827" pageHeight="1169" math="0" shadow="0">
      <root>
        <mxCell id="WIyWlLk6GJQsqaUBKTNV-0" />
        <mxCell id="WIyWlLk6GJQsqaUBKTNV-1" parent="WIyWlLk6GJQsqaUBKTNV-0" />
        <mxCell id="sZtju4CgqXjS0DOj6s6p-0" value="&lt;h1&gt;Bilangan Kelipatan 7&lt;/h1&gt;&lt;p&gt;Jika suatu bilangan adalah 7 dan kelipatannya seperti 14, 21, 28, ... yang artinya jika suatu bilangan habis dibagi 7 maka dia adalah kelipatan dari 7&lt;/p&gt;" style="text;html=1;strokeColor=none;fillColor=none;spacing=5;spacingTop=-20;whiteSpace=wrap;overflow=hidden;rounded=0;" vertex="1" parent="WIyWlLk6GJQsqaUBKTNV-1">
          <mxGeometry x="10" y="-1150" width="260" height="120" as="geometry" />
        </mxCell>
        <mxCell id="sZtju4CgqXjS0DOj6s6p-3" value="" style="edgeStyle=orthogonalEdgeStyle;rounded=0;orthogonalLoop=1;jettySize=auto;html=1;" edge="1" parent="WIyWlLk6GJQsqaUBKTNV-1" source="sZtju4CgqXjS0DOj6s6p-1" target="sZtju4CgqXjS0DOj6s6p-2">
          <mxGeometry relative="1" as="geometry" />
        </mxCell>
        <mxCell id="sZtju4CgqXjS0DOj6s6p-1" value="start" style="ellipse;whiteSpace=wrap;html=1;" vertex="1" parent="WIyWlLk6GJQsqaUBKTNV-1">
          <mxGeometry x="340" y="-1120" width="120" height="80" as="geometry" />
        </mxCell>
        <mxCell id="sZtju4CgqXjS0DOj6s6p-5" value="" style="edgeStyle=orthogonalEdgeStyle;rounded=0;orthogonalLoop=1;jettySize=auto;html=1;" edge="1" parent="WIyWlLk6GJQsqaUBKTNV-1" source="sZtju4CgqXjS0DOj6s6p-2" target="sZtju4CgqXjS0DOj6s6p-4">
          <mxGeometry relative="1" as="geometry" />
        </mxCell>
        <mxCell id="sZtju4CgqXjS0DOj6s6p-2" value="var n (bilangan)&lt;br&gt;var k (kelipatan)" style="whiteSpace=wrap;html=1;" vertex="1" parent="WIyWlLk6GJQsqaUBKTNV-1">
          <mxGeometry x="340" y="-1010" width="120" height="60" as="geometry" />
        </mxCell>
        <mxCell id="sZtju4CgqXjS0DOj6s6p-7" value="" style="edgeStyle=orthogonalEdgeStyle;rounded=0;orthogonalLoop=1;jettySize=auto;html=1;" edge="1" parent="WIyWlLk6GJQsqaUBKTNV-1" source="sZtju4CgqXjS0DOj6s6p-4" target="sZtju4CgqXjS0DOj6s6p-6">
          <mxGeometry relative="1" as="geometry" />
        </mxCell>
        <mxCell id="sZtju4CgqXjS0DOj6s6p-4" value="input n&lt;br&gt;input k (7)" style="shape=parallelogram;perimeter=parallelogramPerimeter;whiteSpace=wrap;html=1;fixedSize=1;" vertex="1" parent="WIyWlLk6GJQsqaUBKTNV-1">
          <mxGeometry x="340" y="-920" width="120" height="60" as="geometry" />
        </mxCell>
        <mxCell id="sZtju4CgqXjS0DOj6s6p-9" value="" style="edgeStyle=orthogonalEdgeStyle;rounded=0;orthogonalLoop=1;jettySize=auto;html=1;" edge="1" parent="WIyWlLk6GJQsqaUBKTNV-1" source="sZtju4CgqXjS0DOj6s6p-6" target="sZtju4CgqXjS0DOj6s6p-8">
          <mxGeometry relative="1" as="geometry" />
        </mxCell>
        <mxCell id="sZtju4CgqXjS0DOj6s6p-12" value="no" style="edgeLabel;html=1;align=center;verticalAlign=middle;resizable=0;points=[];" vertex="1" connectable="0" parent="sZtju4CgqXjS0DOj6s6p-9">
          <mxGeometry x="-0.0667" y="-1" relative="1" as="geometry">
            <mxPoint as="offset" />
          </mxGeometry>
        </mxCell>
        <mxCell id="sZtju4CgqXjS0DOj6s6p-17" value="" style="edgeStyle=orthogonalEdgeStyle;rounded=0;orthogonalLoop=1;jettySize=auto;html=1;" edge="1" parent="WIyWlLk6GJQsqaUBKTNV-1" source="sZtju4CgqXjS0DOj6s6p-6" target="sZtju4CgqXjS0DOj6s6p-16">
          <mxGeometry relative="1" as="geometry" />
        </mxCell>
        <mxCell id="sZtju4CgqXjS0DOj6s6p-26" value="yes" style="edgeLabel;html=1;align=center;verticalAlign=middle;resizable=0;points=[];" vertex="1" connectable="0" parent="sZtju4CgqXjS0DOj6s6p-17">
          <mxGeometry x="-0.7155" y="-1" relative="1" as="geometry">
            <mxPoint as="offset" />
          </mxGeometry>
        </mxCell>
        <mxCell id="sZtju4CgqXjS0DOj6s6p-6" value="n &amp;lt; k" style="rhombus;whiteSpace=wrap;html=1;" vertex="1" parent="WIyWlLk6GJQsqaUBKTNV-1">
          <mxGeometry x="360" y="-820" width="80" height="80" as="geometry" />
        </mxCell>
        <mxCell id="sZtju4CgqXjS0DOj6s6p-11" value="" style="edgeStyle=orthogonalEdgeStyle;rounded=0;orthogonalLoop=1;jettySize=auto;html=1;" edge="1" parent="WIyWlLk6GJQsqaUBKTNV-1" source="sZtju4CgqXjS0DOj6s6p-8" target="sZtju4CgqXjS0DOj6s6p-10">
          <mxGeometry relative="1" as="geometry" />
        </mxCell>
        <mxCell id="sZtju4CgqXjS0DOj6s6p-13" value="no" style="edgeLabel;html=1;align=center;verticalAlign=middle;resizable=0;points=[];" vertex="1" connectable="0" parent="sZtju4CgqXjS0DOj6s6p-11">
          <mxGeometry x="-0.05" y="-1" relative="1" as="geometry">
            <mxPoint as="offset" />
          </mxGeometry>
        </mxCell>
        <mxCell id="sZtju4CgqXjS0DOj6s6p-19" value="" style="edgeStyle=orthogonalEdgeStyle;rounded=0;orthogonalLoop=1;jettySize=auto;html=1;" edge="1" parent="WIyWlLk6GJQsqaUBKTNV-1" source="sZtju4CgqXjS0DOj6s6p-8" target="sZtju4CgqXjS0DOj6s6p-18">
          <mxGeometry relative="1" as="geometry" />
        </mxCell>
        <mxCell id="sZtju4CgqXjS0DOj6s6p-20" value="yes" style="edgeLabel;html=1;align=center;verticalAlign=middle;resizable=0;points=[];" vertex="1" connectable="0" parent="sZtju4CgqXjS0DOj6s6p-19">
          <mxGeometry x="-0.6353" y="1" relative="1" as="geometry">
            <mxPoint as="offset" />
          </mxGeometry>
        </mxCell>
        <mxCell id="sZtju4CgqXjS0DOj6s6p-8" value="n = k" style="rhombus;whiteSpace=wrap;html=1;" vertex="1" parent="WIyWlLk6GJQsqaUBKTNV-1">
          <mxGeometry x="360" y="-690" width="80" height="80" as="geometry" />
        </mxCell>
        <mxCell id="sZtju4CgqXjS0DOj6s6p-21" style="edgeStyle=orthogonalEdgeStyle;rounded=0;orthogonalLoop=1;jettySize=auto;html=1;exitX=1;exitY=0.5;exitDx=0;exitDy=0;" edge="1" parent="WIyWlLk6GJQsqaUBKTNV-1" source="sZtju4CgqXjS0DOj6s6p-10">
          <mxGeometry relative="1" as="geometry">
            <mxPoint x="560" y="-430" as="targetPoint" />
          </mxGeometry>
        </mxCell>
        <mxCell id="sZtju4CgqXjS0DOj6s6p-22" value="yes" style="edgeLabel;html=1;align=center;verticalAlign=middle;resizable=0;points=[];" vertex="1" connectable="0" parent="sZtju4CgqXjS0DOj6s6p-21">
          <mxGeometry x="-0.4109" y="-3" relative="1" as="geometry">
            <mxPoint as="offset" />
          </mxGeometry>
        </mxCell>
        <mxCell id="sZtju4CgqXjS0DOj6s6p-23" style="edgeStyle=orthogonalEdgeStyle;rounded=0;orthogonalLoop=1;jettySize=auto;html=1;exitX=0;exitY=0.5;exitDx=0;exitDy=0;entryX=0.5;entryY=0;entryDx=0;entryDy=0;" edge="1" parent="WIyWlLk6GJQsqaUBKTNV-1" source="sZtju4CgqXjS0DOj6s6p-10" target="sZtju4CgqXjS0DOj6s6p-16">
          <mxGeometry relative="1" as="geometry" />
        </mxCell>
        <mxCell id="sZtju4CgqXjS0DOj6s6p-24" value="no" style="edgeLabel;html=1;align=center;verticalAlign=middle;resizable=0;points=[];" vertex="1" connectable="0" parent="sZtju4CgqXjS0DOj6s6p-23">
          <mxGeometry x="-0.4222" y="-1" relative="1" as="geometry">
            <mxPoint as="offset" />
          </mxGeometry>
        </mxCell>
        <mxCell id="sZtju4CgqXjS0DOj6s6p-10" value="n % 7 = 0" style="rhombus;whiteSpace=wrap;html=1;" vertex="1" parent="WIyWlLk6GJQsqaUBKTNV-1">
          <mxGeometry x="360" y="-550" width="80" height="80" as="geometry" />
        </mxCell>
        <mxCell id="sZtju4CgqXjS0DOj6s6p-28" style="edgeStyle=orthogonalEdgeStyle;rounded=0;orthogonalLoop=1;jettySize=auto;html=1;exitX=1;exitY=0.5;exitDx=0;exitDy=0;entryX=0;entryY=0.5;entryDx=0;entryDy=0;" edge="1" parent="WIyWlLk6GJQsqaUBKTNV-1" source="sZtju4CgqXjS0DOj6s6p-16" target="sZtju4CgqXjS0DOj6s6p-27">
          <mxGeometry relative="1" as="geometry" />
        </mxCell>
        <mxCell id="sZtju4CgqXjS0DOj6s6p-16" value="output : n &quot;bukan bilangan kelipatan&quot; k (7)" style="shape=parallelogram;perimeter=parallelogramPerimeter;whiteSpace=wrap;html=1;fixedSize=1;" vertex="1" parent="WIyWlLk6GJQsqaUBKTNV-1">
          <mxGeometry x="140" y="-435" width="170" height="70" as="geometry" />
        </mxCell>
        <mxCell id="sZtju4CgqXjS0DOj6s6p-29" style="edgeStyle=orthogonalEdgeStyle;rounded=0;orthogonalLoop=1;jettySize=auto;html=1;exitX=0;exitY=0.5;exitDx=0;exitDy=0;entryX=1;entryY=0.5;entryDx=0;entryDy=0;" edge="1" parent="WIyWlLk6GJQsqaUBKTNV-1" source="sZtju4CgqXjS0DOj6s6p-18" target="sZtju4CgqXjS0DOj6s6p-27">
          <mxGeometry relative="1" as="geometry" />
        </mxCell>
        <mxCell id="sZtju4CgqXjS0DOj6s6p-18" value="output : n &quot;bilangan kelipatan&quot; k (7)" style="shape=parallelogram;perimeter=parallelogramPerimeter;whiteSpace=wrap;html=1;fixedSize=1;" vertex="1" parent="WIyWlLk6GJQsqaUBKTNV-1">
          <mxGeometry x="490" y="-430" width="140" height="60" as="geometry" />
        </mxCell>
        <mxCell id="sZtju4CgqXjS0DOj6s6p-27" value="end" style="ellipse;whiteSpace=wrap;html=1;" vertex="1" parent="WIyWlLk6GJQsqaUBKTNV-1">
          <mxGeometry x="365" y="-425" width="70" height="50" as="geometry" />
        </mxCell>
      </root>
    </mxGraphModel>
  </diagram>
</mxfile>
